<?xml version="1.0" encoding="UTF-8"?>
<svg version="1.1" xmlns="http://www.w3.org/2000/svg" width="128" height="128">
<path d="M0 0 C13.4049791 10.08466889 22.8895283 24.50756459 25.4140625 41.22265625 C27.18485288 61.98721061 23.29842818 79.57058598 9.65625 95.8125 C-1.52088628 107.82694788 -16.23240541 115.81854174 -32.78515625 116.55859375 C-53.04635469 116.8915543 -69.39297325 112.35679155 -84.5859375 98.22265625 C-98.11616884 84.40360224 -103.01172963 68.53868692 -102.95166016 49.61206055 C-102.62380549 31.62065989 -94.95829184 16.37822505 -82.15625 3.84375 C-58.82102307 -16.61785106 -25.26462465 -17.36465894 0 0 Z " fill="#FCFDFF" transform="translate(102.5859375,11.77734375)"/>
<path d="M0 0 C13.4049791 10.08466889 22.8895283 24.50756459 25.4140625 41.22265625 C27.18485288 61.98721061 23.29842818 79.57058598 9.65625 95.8125 C-1.52088628 107.82694788 -16.23240541 115.81854174 -32.78515625 116.55859375 C-53.04635469 116.8915543 -69.39297325 112.35679155 -84.5859375 98.22265625 C-98.11616884 84.40360224 -103.01172963 68.53868692 -102.95166016 49.61206055 C-102.62380549 31.62065989 -94.95829184 16.37822505 -82.15625 3.84375 C-58.82102307 -16.61785106 -25.26462465 -17.36465894 0 0 Z M-73.5859375 8.22265625 C-74.64361328 9.02316406 -74.64361328 9.02316406 -75.72265625 9.83984375 C-85.82787769 17.88552482 -93.07454524 31.36671727 -94.5859375 44.22265625 C-95.96197435 62.1661768 -91.48838737 76.83664569 -79.8984375 90.91015625 C-69.73378486 101.88953296 -55.42303542 107.95112351 -40.65258789 108.60986328 C-24.18309145 108.98779759 -9.76456376 102.66916713 2.3125 91.48828125 C13.74976956 79.15813935 17.95371383 64.41669673 17.65625 47.95703125 C16.67835194 32.87847411 9.58616005 19.34347189 -1.5859375 9.22265625 C-23.04645145 -7.11624163 -52.27347091 -9.51853216 -73.5859375 8.22265625 Z " fill="#0253FF" transform="translate(102.5859375,11.77734375)"/>
<path d="M0 0 C2.475 0.495 2.475 0.495 5 1 C4.67 4.3 4.34 7.6 4 11 C5.32 11.33 6.64 11.66 8 12 C8.66 9.03 9.32 6.06 10 3 C11.98 3.33 13.96 3.66 16 4 C15.34 7.3 14.68 10.6 14 14 C14.886875 14.20625 15.77375 14.4125 16.6875 14.625 C20.88868729 16.36888906 22.55235347 18.18455099 25 22 C25.6875 25.4375 25.6875 25.4375 25 29 C23.2415673 31.59457506 21.23641939 33.81017268 19 36 C19.66 36.45375 20.32 36.9075 21 37.375 C24.03986958 41.36482882 23.62941195 45.15352798 23 50 C21.59183128 53.89317236 20.42606761 54.75772626 16.8125 56.8125 C11.60677167 58.43395637 7.27072018 58.75690673 2 57 C1.34 59.97 0.68 62.94 0 66 C-1.98 65.67 -3.96 65.34 -6 65 C-5.34 61.7 -4.68 58.4 -4 55 C-5.32 54.67 -6.64 54.34 -8 54 C-8.66 56.97 -9.32 59.94 -10 63 C-11.98 62.67 -13.96 62.34 -16 62 C-15.34 58.7 -14.68 55.4 -14 52 C-15.258125 51.855625 -16.51625 51.71125 -17.8125 51.5625 C-20.42667123 51.26251314 -22.47439892 50.84186703 -25 50 C-24.39816251 47.97954558 -23.72693904 45.97888961 -23 44 C-20.53721199 42.768606 -18.7204945 42.92840804 -16 43 C-15.01370637 39.481124 -14.03726345 35.9595858 -13.0625 32.4375 C-12.78470703 31.44685547 -12.50691406 30.45621094 -12.22070312 29.43554688 C-10.80241467 24.29211526 -9.58785177 19.30554821 -9 14 C-11.97 13.505 -11.97 13.505 -15 13 C-15.042721 11.33388095 -15.04063832 9.66617115 -15 8 C-14.67 7.67 -14.34 7.34 -14 7 C-9.83358261 7.40981155 -6.06688139 7.98327965 -2 9 C-1.34 6.03 -0.68 3.06 0 0 Z " fill="#0756FF" transform="translate(64,31)"/>
<path d="M0 0 C5.66358152 0.46233319 9.38513809 1.58500219 14 5 C15.125 8.0625 15.125 8.0625 15 11 C13.83203125 12.66796875 13.83203125 12.66796875 12 14 C9.44140625 14.328125 9.44140625 14.328125 6.5625 14.25 C5.61503906 14.23453125 4.66757813 14.2190625 3.69140625 14.203125 C1.32882345 14.02481686 -0.73349833 13.66441184 -3 13 C-2.69128878 11.20767663 -2.37790936 9.41615679 -2.0625 7.625 C-1.88847656 6.62726563 -1.71445312 5.62953125 -1.53515625 4.6015625 C-1 2 -1 2 0 0 Z " fill="#F4F8FF" transform="translate(61,66)"/>
<path d="M0 0 C5.51671459 0.37401455 9.13676876 0.65386486 13 5 C13.4375 7.625 13.4375 7.625 13 10 C11 12 11 12 8.1796875 12.1953125 C7.08914062 12.17210937 5.99859375 12.14890625 4.875 12.125 C3.77929688 12.10695313 2.68359375 12.08890625 1.5546875 12.0703125 C0.71164063 12.04710937 -0.13140625 12.02390625 -1 12 C-2.09898702 8.70303895 -1.87124444 7.59505097 -1.0625 4.3125 C-0.86785156 3.50425781 -0.67320313 2.69601563 -0.47265625 1.86328125 C-0.31667969 1.24839844 -0.16070312 0.63351563 0 0 Z " fill="#F3F7FF" transform="translate(65,49)"/>
</svg>
